<svg xmlns="http://www.w3.org/2000/svg" viewBox="0 0 32 32"><circle fill="#f7931a" cx="16" cy="16" r="16"/><path fill="#fff" d="M17.219 17.958c1.219.296 2.016 1.073 1.229 2.177-.688 1.021-2.135.927-3.24.583v2.104h-1.052v-2.042c-.271-.042-.563-.104-.854-.167v2.208h-1.052v-2.344c-.25-.063-.5-.125-.74-.209l.354-1.229s.896.313.865.271c.344.084.521-.125.573-.271v-3.104h.334c.24.031.5.063.75.104v3.094c1.229.292 2.604.531 2.938-.625.344-1.229-1.552-1.625-2.271-1.771l-.688-.146c-.979-.229-2.063-.573-1.896-1.979.146-1.188 1.156-1.771 2.604-1.823v-1.99h1.042v1.896c.271.021.542.052.813.084v-1.948h1.042v1.969c.209.042.417.084.615.125l-.344 1.229s-.688-.208-.667-.188c-.271-.063-.521-.125-.781-.188v2.833z"/></svg>